<?xml version="1.0" encoding="UTF-8" standalone="no"?>
<!DOCTYPE svg PUBLIC "-//W3C//DTD SVG 1.1//EN" "http://www.w3.org/Graphics/SVG/1.1/DTD/svg11.dtd">
<svg xmlns="http://www.w3.org/2000/svg" xmlns:xlink="http://www.w3.org/1999/xlink" version="1.1" width="612pt" height="792pt" viewBox="0 0 612 792">
<g enable-background="new">
<text xml:space="preserve" transform="matrix(1 0 -0 1 0 792)" font-size="14.3462" font-family="CMSSBX10" font-weight="bold"><tspan y="-746.037" x="36 47.390886 54.477907 59.82904 72.25285 79.78461 87.84717 91.95018 99.28109 106.612 117.65858 126.4241 130.09673 138.14495 146.03536 159.34864 170.73952 178.27127 186.16168">HarmanjeetSinghNagi</tspan></text>
<text xml:space="preserve" transform="matrix(1 0 -0 1 0 792)" font-size="10.9091" font-family="CMSS10"><tspan y="-746.037" x="466.121 472.63374 481.29557 486.54286 489.15013 495.3901 503.27738 508.9174 512.6483 521.3101 526.95016 529.86288 533.801 541.0774 546.7174 550.4483 559.1101 564.7501 567.78286 570.39016">Email:hrmnjt@hrmn.in</tspan><tspan y="-732.488" x="36 41.640005 45.57819 49.516378 55.15638 59.334566 62.367296 67.821849 73.2764 80.72731 88.17822 95.629138 98.661869 104.30187 108.03278 116.69461 122.33462 125.247348 129.18553 132.21826 137.85826 142.7019 147.731 448.94218 458.48765 463.9422 469.5822 472.18949 474.79676 483.2731 491.16038 499.64765 505.1022 510.55677 516.0113 519.64407 525.0986 530.5531 534.18588 539.6404 545.0949 550.54946 554.1822 559.6367 565.09127 570.5458">https://www.hrmnjt.dev/Mobile:+971-50-373-7005</tspan><tspan y="-718.93899" x="503.242 510.51838 513.1257 517.06387 522.70388 528.3439 537.61666 545.5039 551.1439 554.8748 563.5366 569.17666 572.08938">Github:hrmnjt</tspan><tspan y="-705.38998" x="495.63603 501.54875 504.156 509.79603 514.8251 519.6687 525.3087 528.34146 537.6142 545.50149 551.1415 554.8724 563.5342 569.1742 572.0869">LinkedIn:hrmnjt</tspan></text>
<text xml:space="preserve" transform="matrix(1 0 -0 1 0 792)" font-size="11.9552" font-family="CMCSC10"><tspan y="-678.11099" x="36.00003 44.87079 52.199327 58.870328 65.54133 72.73836 76.34883 83.01984 90.34837 97.413898">Experience</tspan></text>
<path transform="matrix(1,0,0,-1,36,118.27197)" stroke-width=".398" stroke-linecap="butt" stroke-miterlimit="10" stroke-linejoin="miter" fill="none" stroke="#000000" d="M 0 0 L 540 0 "/>
<text xml:space="preserve" transform="matrix(1 0 -0 1 0 792)" font-size="10.9091" font-family="CMSY10" font-style="italic"><tspan y="-659.218" x="36">&#x2022;</tspan></text>
<text xml:space="preserve" transform="matrix(1 0 -0 1 0 792)" font-size="10.9091" font-family="CMSSBX10" font-weight="bold"><tspan y="-659.218" x="46.909 57.578104 63.30538 66.425388 69.21812 79.34176 87.33813 94.12359 100.46178 106.58178 110.98906 115.39633 121.12361 123.91634">MajidAlFuttaim</tspan></text>
<text xml:space="preserve" transform="matrix(1 0 -0 1 0 792)" font-size="10.9091" font-family="CMSS10"><tspan y="-659.218" x="515.755 523.63137 529.27139 534.9114 540.1586 542.7659 549.4314 556.9368 564.2132">Dubai,UAE</tspan></text>
<text xml:space="preserve" transform="matrix(1 0 -0 1 0 792)" font-size="9.9626" font-family="CMSSI10" font-style="italic"><tspan y="-645.669" x="46.908998 52.448205 56.871599 62.022264 64.40332 69.10567 75.840389 83.03339 87.81543 91.42189 99.53144 105.47911 110.629779 115.61108 117.992137 123.1428 127.56619 131.9896 490.593 495.29536 500.446 508.9142 513.8955 518.87686 523.85818 532.167 538.8021 545.1682 548.57546 552.99887 556.8145 561.2379 566.38858">SeniorDataEngineerJun2019-Present</tspan></text>
<text xml:space="preserve" transform="matrix(1 0 -0 1 0 792)" font-size="10.9091" font-family="CMSY10" font-style="italic"><tspan y="-629.151" x="60">&#x25e6;</tspan></text>
<text xml:space="preserve" transform="matrix(1 0 -0 1 0 792)" font-size="9.9626" font-family="CMSSBX10" font-weight="bold"><tspan y="-629.151" x="70.909 78.211589 83.44195 87.466838 92.33855 101.58384 109.49414 114.7245 118.74939 127.62606 134.62976 137.18019 143.07805 148.16895 150.71938 153.2698 158.85883 163.9497">BatchDataPipelines</tspan></text>
<text xml:space="preserve" transform="matrix(1 0 -0 1 0 792)" font-size="9.9626" font-family="CMSS10"><tspan y="-629.151" x="168.15 175.343 178.11261 183.26328 188.41394 193.39524 198.5459 202.36157 210.11249 215.26316 220.05516 223.65166 231.76122 234.80977 238.21698 243.00899 250.9193 255.3427 261.8682 266.57054 269.97773 278.17695 283.3276 288.11964 291.9353 296.3587 304.8269 309.8082 318.2764 323.2577 328.68733 333.11073 341.57893 345.40455 350.38584 355.52656 358.93376 363.35716 371.10807 375.97978 379.38697 384.36827 387.02827 391.45167 395.87507 399.47157 406.60478 410.48023 417.12528 419.50636 422.91355 425.58354 428.2535 432.96583 443.0878 447.87983 453.0305 461.4987 468.14375 471.55094 476.53224 481.51353 488.7165 492.313 500.61183 505.31416 508.72135 513.1447 518.29537 522.71878 526.5344 530.1309 533.53817 538.33016 541.92666 549.6676 554.4596 559.6102">:Inhousedataframeworkbasedonopensourceprojects(AirflowandArgo)toorchestrateand</tspan><tspan y="-617.196" x="70.909 74.31621 79.46687 87.93508 93.08575 97.877758 101.47425 105.897647 114.37582 119.52648 124.308528 127.90502 136.02455 141.17522 143.55628 148.97594 153.4093 155.79036 158.17142 163.31212 167.74549 174.87871 177.92726 182.62961 189.35437 191.73543 196.8861 201.86739 206.29079 210.10646 213.70296 216.08402 221.0653 226.21598 232.3131 238.83861 243.35167 246.75888 251.18228 256.33296 261.31425 266.4649 270.28059 272.66166 277.81233 286.11116 290.90318 296.05384 304.532 309.32405 314.4747 319.26673 321.6478 326.24058 329.83708 332.21815 336.64155">runbatchdatapipelinesforingestion,warehousingandanalytics</tspan></text>
<text xml:space="preserve" transform="matrix(1 0 -0 1 0 792)" font-size="9.9626" font-family="CMSY10" font-style="italic"><tspan y="-603.248" x="60.472997">&#x25e6;</tspan></text>
<text xml:space="preserve" transform="matrix(1 0 -0 1 0 792)" font-size="9.9626" font-family="CMSSBX10" font-weight="bold"><tspan y="-603.248" x="70.909 78.8193 84.04966 88.07455 96.96118 106.704608 112.48292 118.07194 123.16283 125.71325 128.26367 130.8141 136.40312 145.53884 150.7692 156.35822 165.59355 175.64582 180.56734 184.27342 189.36432 194.95334 200.43277 206.02179 210.22602 212.77645 218.36547">DataModellingandWarehousing</tspan></text>
<text xml:space="preserve" transform="matrix(1 0 -0 1 0 792)" font-size="9.9626" font-family="CMSS10"><tspan y="-603.248" x="223.997 231.19 236.7292 241.1526 244.7491 249.89977 255.05043 261.14756 264.96324 269.38664 274.5373 278.9607 286.871 294.98057 300.13124 304.55464 308.3703 310.75138 315.73268 324.20088 328.9929 334.14356 342.62174 346.4374 350.8608 356.01148 360.43489 365.58555 370.7362 373.11729 375.49836 380.64903 388.94786 393.92915 400.29524 406.66133 411.09468 414.4919 418.09837 420.47944 424.90284 433.0124 436.88786 441.67988 446.83055 451.62257 454.00364 458.5964 462.1929 464.57398 468.99739 476.13059 481.28126 486.07328 489.66978 494.4618 499.61247 504.40449 508.22016 512.64358 516.519 523.712 532.8477 536.25497 541.23629 544.83279 552.5737 557.72439 562.51638 566.11288">:Setup,schemadesignandschedulingofVertica(analyticsdatabase).Wrotedata</tspan><tspan y="-591.29299" x="70.909 76.05966 78.44072 83.87034 88.29373 90.67479 93.05585 98.20651 102.629909 109.76312 112.811679 117.51402 124.24874 128.67214 132.07935 137.23001 141.65341 144.03447 148.82648 154.52509 159.67575 164.82642 168.64209 171.02315 176.17382 180.59722 184.41289 191.54611 196.5274 201.95702 206.38042 209.78763 214.57964 218.17613 220.55719 225.53849 230.68915 237.82238 244.46744 246.8485 251.55084 255.86467 260.65669 263.03776 266.3553 274.27558 279.14729 282.55448 287.53578 292.51707 295.92427 300.71629 308.6266 314.7137 318.1209 322.5443 326.1408 330.93284 333.3139 339.0125 343.80455 348.9552 357.43339 360.48194 365.27397 369.08964 374.2403 376.62138 381.60267 390.07087 394.86289 400.01356 404.80558 407.18666 411.77943 415.37593 417.757 422.1804 425.99607 432.0832 436.8752 442.02589 450.49409 458.4044 463.38569 467.97846 470.35954 478.11045 481.51765 485.94105 490.36445 495.34574 503.25605 511.16636 515.5897 520.74038 525.891 530.683 534.2795 536.6605 541.64187 546.7925">pipelinesforcrucialbusinessoperations-loyaltyprogram,retailandfashionanalytics,andmovierecommendations</tspan></text>
<text xml:space="preserve" transform="matrix(1 0 -0 1 0 792)" font-size="9.9626" font-family="CMSY10" font-style="italic"><tspan y="-577.345" x="60.472997">&#x25e6;</tspan></text>
<text xml:space="preserve" transform="matrix(1 0 -0 1 0 792)" font-size="9.9626" font-family="CMSSBX10" font-weight="bold"><tspan y="-577.345" x="70.909 77.90275 84.906459 90.694728 98.555217 101.90265 107.0832 114.43559 121.14042 126.61985 130.82407 134.84896 140.32839 144.03447 149.12537 156.9759 162.20627 167.79529 177.04059 184.03433 189.12522 192.84127 196.85619 199.40662 204.27832">ACLsforPostgresandVertica</tspan></text>
<text xml:space="preserve" transform="matrix(1 0 -0 1 0 792)" font-size="9.9626" font-family="CMSS10"><tspan y="-577.345" x="209.512 216.705 223.0711 228.0524 233.20307 237.62647 242.05983 247.20053 250.79703 255.9477 260.73973 263.1208 265.50187 269.8356 274.259 282.73719 287.5292 292.67988 301.14808 306.29875 311.4494 313.83049 316.21156 323.12559 325.50666 330.65733 334.2538 338.67723 342.0844 347.23509 352.0271 357.7257 362.51774 366.94114 371.37449 375.79789 379.61357 386.74678 391.17018 396.15147 401.30213 404.89863 408.30583 413.2871 418.98573 423.77775 428.9284 434.07908 436.46015 438.84123 443.26463 448.05665 451.65315 454.0342 459.0155 467.4837 470.53227 475.24458 481.9693 487.11997 491.912 495.50849 503.61805 508.59934 513.5806 518.1734 522.5968 526.004 530.796 535.94668 540.37008">:Conceptualizedandbuiltinternalaccesscontrolapplicationfordatagoverance</tspan><tspan y="-565.38998" x="70.909 75.701007 80.85167 86.002338 90.42573 93.83294 98.25633 103.407 107.83039 115.57133 120.55263 129.0308 135.39691 139.82032 143.22753 146.82402 149.20508 153.62848 161.73804 166.53005 171.68071 180.14893 186.24604 191.22733 195.043 198.6395 203.62079 207.028 211.4514 218.58463 225.77762 232.42267 238.50983 245.15488 250.30554 255.4562 259.8796 268.3578 275.00285 285.51338 290.3054 295.45606 299.05256 304.20323 308.62663 313.77729 317.37379 319.75486 324.17826 328.97029 332.56678 334.94786 339.92915 348.39735 353.18937 358.34004 366.80824 370.21543 375.19673 377.5778 382.0012 389.14439 395.66987 400.09327 403.50047 411.2414 416.39207 420.81547 423.48545 426.16539 431.3061 435.73945 444.20765 448.99967 456.13288 461.28355 466.4342 470.24989 472.63096 477.78163 482.20503 486.0207 493.16389 498.14518 500.52626 505.50755 509.3232 513.1389 517.652 521.0592">adherenceonVerticaandPostgresDB.AddedADauthenticationandrolesweredefinedasbusinessglossary</tspan></text>
<text xml:space="preserve" transform="matrix(1 0 -0 1 0 792)" font-size="9.9626" font-family="CMSY10" font-style="italic"><tspan y="-551.44296" x="60.472997">&#x25e6;</tspan></text>
<text xml:space="preserve" transform="matrix(1 0 -0 1 0 792)" font-size="9.9626" font-family="CMSSBX10" font-weight="bold"><tspan y="-551.44296" x="70.909 76.99615 81.86786 87.45688 92.54777 98.13679 103.72581 106.27623 115.02339 124.766819 130.24625 135.83527 138.3857 142.41059 147.58118 151.28726 153.83769 159.42671 168.56243 173.79279 179.3818 188.61714 196.52745 201.75782 205.7827 214.66934 222.57965 228.16867 232.3729 237.46378 241.16986 246.15116 251.38152 256.97053 259.52095 262.07136 264.62178 268.33784">ScheduleMonitoringandDataObservability</tspan></text>
<text xml:space="preserve" transform="matrix(1 0 -0 1 0 792)" font-size="9.9626" font-family="CMSS10"><tspan y="-551.44296" x="273.478 280.671 286.2102 290.6336 294.2301 299.38078 307.85896 312.65098 317.80165 326.26985 334.18016 338.97218 341.35325 346.5039 350.1004 354.89244 357.2735 362.42417 366.84757 375.31578 381.96083 385.368 390.16004 393.2086 398.0006 403.15129 411.26084 416.4115 421.20353 425.0192 429.4426 437.92079 445.8311 450.81239 455.96305 458.34413 461.9406 466.64295 470.05015 472.4312 477.58189 485.8807 491.03138 495.8234 499.63908 504.78974 510.21937 515.2007 519.71377 523.121 528.2716 535.40487 538.4534 543.1558 549.89059 555.0412 559.8332 563.4297 568.2217">:SetupandmaintainedGrafanabasedmonitoringdashboardsfordata,</tspan><tspan y="-539.48696" x="70.909 73.290058 78.44072 81.48927 84.896488 89.68849 93.504169 97.10066 100.50787 105.65854 110.08193 113.67843 118.829097 122.236309 129.97725 134.76926 139.91992 148.38814 152.20381 156.63718 161.77788 166.21125 171.35195 176.50261 178.88367 186.63459 194.54489 199.52619 204.67685 207.0579 210.6544 215.35675 218.76396 221.14502 226.29569 231.27698 238.46999 245.11504 247.4961 251.31177 256.29307 262.39018 266.81358 271.96424 276.75627 281.90693 284.288 288.7114 297.1796 301.97163 304.3527 308.7761 312.1833 315.7798 322.913 327.70503 332.85569 341.33387 349.24418 353.66758 357.48326 361.29893 366.09095 371.07225 373.4533 378.60398 386.9028 389.95137 394.6537 401.3884 404.427 409.21903 411.6001 413.98118 419.13185 422.53904 426.96244 434.10563 438.89765 444.0483 452.5165 457.66719 462.09059 467.24125 469.6223 474.32466 478.91743 486.82774 491.25114 496.4018 499.9983">infrastructureandschedulemonitoring.Also,enabledalertsandmessagingforfailuresanddeployments</tspan></text>
<text xml:space="preserve" transform="matrix(1 0 -0 1 0 792)" font-size="9.9626" font-family="CMSY10" font-style="italic"><tspan y="-525.5399" x="60.472997">&#x25e6;</tspan></text>
<text xml:space="preserve" transform="matrix(1 0 -0 1 0 792)" font-size="9.9626" font-family="CMSSBX10" font-weight="bold"><tspan y="-525.5399" x="70.909 78.211589 83.69102 86.24144 91.83046 96.92135 106.16664 113.17035 118.75937 122.963588 126.98847 132.4679 141.10547 146.19635 153.54875 160.55246 165.64334 170.51505 175.6956 179.40169">GoldenCustomerRecord</tspan></text>
<text xml:space="preserve" transform="matrix(1 0 -0 1 0 792)" font-size="9.9626" font-family="CMSS10"><tspan y="-525.5399" x="184.98999 192.183 198.5491 201.95632 206.37972 211.17173 214.76822 222.51914 227.6698 232.82047 235.20153 240.35219 245.50286 253.2438 257.6672 262.81788 266.63356 270.23005 275.21134 283.12165 287.54505 294.26979 297.67698 302.11033 306.53373 311.23606 314.64326 319.7939 326.92713 329.97569 333.38288 338.36418 349.592 357.90083 363.05149 367.8435 371.44 379.54957 383.36524 388.34654 393.4972 396.9044 401.3278 405.7512 412.8844 415.93296 420.64527 427.37 432.3513 440.65013 445.07353 450.22419 454.03987 457.63636 462.61766 470.52796 474.95137 481.68608 486.4781 490.0746 493.67109 497.07829 499.45936 504.61003 509.76069 513.3572 517.7806 524.9138 530.06448 533.8801 536.26119 541.4118">:Createuniquecustomerrecordsfrom9datasourcesfor35customerattributesusing</tspan><tspan y="-513.5839" x="70.90899 73.67859 78.829257 81.87781 86.580158 89.987369 97.89767 102.689678 106.28617 108.66723 113.09062 121.20017 129.91745 137.11045 145.82772 151.92484 158.29094 161.69815 166.67945 169.33946 173.76287 178.18627 185.10031 189.52371 194.67438 199.46639 204.61705 206.99811 211.42151 219.88973 224.31313 227.72034 232.70163 236.52727 243.66049 248.81116 253.96183 257.7775 260.15858 265.30924 269.73265 273.5483 280.68153 288.59184 293.1049 296.5121 301.1148 305.5382 309.1347 311.51579 316.66645 324.96528 329.7573 334.90797 343.37617 349.90165 354.69367 361.83686 366.98753 372.13819 375.95387 379.55036 382.95756 387.38096 392.17298 403.40083 407.2165 412.19779 417.34846 420.75566 425.17906 432.92997 435.97853 440.68086 447.40559 452.38688 455.79408 460.77537 465.92604 471.0767 474.39424 481.19868 483.57975 488.7304 496.47135 498.85243 503.56474 507.87855 512.67056 515.0516 518.36917 526.2795 531.16116 534.56838 539.5497 544.531 547.9283 552.7203">InformaticaMDM.Projectenabledcrossbusinessmarketingandwasupstreamsourceforgroup-wideloyaltyprogram</tspan></text>
<text xml:space="preserve" transform="matrix(1 0 -0 1 0 792)" font-size="9.9626" font-family="CMSY10" font-style="italic"><tspan y="-499.63694" x="60.47299">&#x25e6;</tspan></text>
<text xml:space="preserve" transform="matrix(1 0 -0 1 0 792)" font-size="9.9626" font-family="CMSSBX10" font-weight="bold"><tspan y="-499.63694" x="70.90899 74.20661 79.79563 83.14307 86.84915 92.07951 96.28373 100.30862 104.0147 109.60372 114.47543 118.50032 124.08934 127.795429 136.47286 145.11043 147.66086 153.14029 156.84638 162.07674 166.10163 168.65206 174.13149 183.317 188.54737 194.13639 203.31194 208.79137 214.38039 218.40528 220.9557 229.59328 232.1437 236.88591 242.11627 246.14116 248.69159 254.17102">Infrastructuremigrationandoptimization</tspan></text>
<text xml:space="preserve" transform="matrix(1 0 -0 1 0 792)" font-size="9.9626" font-family="CMSS10"><tspan y="-499.63694" x="259.75498 266.92805 275.64533 278.0264 283.0077 286.40495 291.19697 294.79347 299.2268 307.63526 312.78593 317.57795 321.17445 329.22425 331.60533 336.39735 341.00007 348.68125 351.7298 355.137 360.1183 371.29634 378.34986 383.14189 388.29255 393.54283 398.5241 406.9425 410.539 418.78804 424.3173 429.29859 436.4816 439.2512 447.1615 452.0332 455.4404 460.4217 465.01448 469.43788 477.85627 483.2859 487.7093 491.1165 494.1551 498.8674 502.2746 510.1849 514.9769 520.12759 524.55099 532.2321 535.2807 539.9831 546.6581 553.02426 557.44766 560.85488 564.45138 566.8324 571.2558">:MigrateddatalakefromHadooptoS3.ImprovedperformanceforVertica</tspan><tspan y="-487.68196" x="70.90898 75.78069 83.70096 91.61126 93.99232 98.97362 102.38083 107.17284 110.76933 113.15039 118.29109 126.5999 131.3919 136.54257 145.01079 147.68077 150.35074 155.5014 159.9248 163.24236 166.83885 171.98952 177.14019 179.52124 184.6719 192.97075 197.39415 199.7752 204.92588 208.74155 212.33805 216.76145 220.16866 227.37162 236.08889 238.46994 243.45124 246.85845 251.65045 255.24695 259.67036 268.13856 270.51963 274.94303 279.92433 284.71635 289.13975 297.06004 303.0077 309.79225 318.5095 322.106 326.898 330.71369 335.5854 342.7186 346.3151 354.6239 361.8169 366.60893 370.2054 378.31498 384.68107 387.06214 392.49177 396.91517 399.29624 401.6773 406.82798 411.25138 418.38459 421.43315 426.13548 432.8602 435.24128 443.15159 448.03327 451.44047 456.42176 461.01454 465.43794 473.90614 477.7218 481.3183 486.11033 491.261 493.64207 496.02314 498.4042 501.72175 505.4876 512.6806 519.11648 523.53988 527.3555 532.50619 534.8872 538.4837 542.9071 551.38528 553.7663">bymigratingandfine-tuningcluster.MigratedlegacyETLtaskstoDataPipelinesforimprovedstability.Resultedin</tspan><tspan y="-475.72596" x="70.90898 75.89028 80.48304 84.90643 88.313648 93.10565 95.48671 101.18531 104.59252 109.015918 114.16658 119.317249 123.74064 127.337139 129.7182 134.6995 143.17768 148.15897 153.14026 164.75666 169.07047 173.49387 178.00693 181.41414 183.7952 191.71547 196.69676 202.12638 206.54978 209.95699 214.73903 218.33553 220.71659 225.69788 230.84854 235.64055 241.34912 246.49979 251.65045 256.80113 261.7824 266.2058">overallreduction40%yearlyoperationalbudget</tspan></text>
<text xml:space="preserve" transform="matrix(1 0 -0 1 0 792)" font-size="9.9626" font-family="CMSY10" font-style="italic"><tspan y="-461.77897" x="60.47298">&#x25e6;</tspan></text>
<text xml:space="preserve" transform="matrix(1 0 -0 1 0 792)" font-size="9.9626" font-family="CMSSBX10" font-weight="bold"><tspan y="-461.77897" x="70.90898 78.81928 84.049648 88.07453 96.96117 104.87147 110.75937 115.85026 119.55634 124.786708 128.8116 131.36203 136.84146 142.43048">DataOperations</tspan></text>
<text xml:space="preserve" transform="matrix(1 0 -0 1 0 792)" font-size="9.9626" font-family="CMSS10"><tspan y="-461.77897" x="146.64798 153.84099 160.27683 164.70023 168.5159 173.94551 178.9268 184.07747 187.89315 190.2742 195.42487 197.80593 205.55684 209.15334 217.45218 221.04868 224.45589 229.2479 234.39856 238.21424 240.59529 245.3873 248.9838 256.72474 261.8754 267.02607 270.84175 273.2228 278.37348 282.79689 286.61256 293.75575 298.9064 303.69844 307.29493 315.40449 318.81169 323.23509 328.38575 333.5364 335.91749 339.32469 343.74809 351.6584 356.0818 361.23246 364.82896 371.96217 374.34324 379.4939 383.0904 391.3992 394.9957 399.4191 403.8425 408.99317 414.14384 416.5249 420.9483 425.74034 431.43894 435.2546 438.8511 443.55345 446.96064 449.3417 453.7651 457.58079 464.78373 470.73139 475.88206 480.67408 485.82475 488.2058 495.94676 502.5918 505.3614 511.44853 514.8557 519.2791 524.7087 529.4111 532.8183 536.4148 538.79586 543.9465 552.24539 557.03738 562.188">:Responsibletotranslatebusinessdatarequirementsintotechnicalstories.EnableBI,reportingand</tspan><tspan y="-449.82398" x="70.90898 75.70099 80.851657 85.64366 88.02472 92.61748 96.213977 98.59503 103.018428 110.15164 115.30231 119.11798 126.86888 131.29228 136.08429 139.89997 144.32337 151.45659 156.60726 161.39926 165.21494 169.63834 178.10655 183.25722 188.40789 191.8151 197.2447 202.226 206.04167 213.79259 218.93329 223.7253 227.54097 231.97434 240.44255 245.59322 250.38523 253.98172 258.77375 262.09129 270.0016 274.51466 277.92185 281.51835">analyticsusecasesbasedpurposebaseddata-marts</tspan></text>
<text xml:space="preserve" transform="matrix(1 0 -0 1 0 792)" font-size="10.9091" font-family="CMSY10" font-style="italic"><tspan y="-430.79499" x="35.99998">&#x2022;</tspan></text>
<text xml:space="preserve" transform="matrix(1 0 -0 1 0 792)" font-size="10.9091" font-family="CMSSBX10" font-weight="bold"><tspan y="-430.79499" x="46.90898 57.57808 67.70173 74.36719 77.15992 83.15993 92.61812 102.33813 105.949039 112.06904">MuSigmaInc</tspan></text>
<text xml:space="preserve" transform="matrix(1 0 -0 1 0 792)" font-size="10.9091" font-family="CMSS10"><tspan y="-430.79499" x="496.70899 503.98536 509.23265 514.8726 520.32717 525.5744 528.1817 533.33078 537.06167 541.9053 548.57077 551.60348 557.24349 562.8835 565.4908">Bangalore,India</tspan></text>
<text xml:space="preserve" transform="matrix(1 0 -0 1 0 792)" font-size="9.9626" font-family="CMSSI10" font-style="italic"><tspan y="-417.24598" x="46.908998 54.101995 58.525388 62.94878 65.32984 69.145519 71.52657 76.50787 84.97608 90.51529 94.93868 97.31974 101.74313 106.8938 110.490299 112.87135 116.68703 120.28352 126.38063 133.02568 138.17635 143.04807 146.45528 150.87868 156.02935 159.62584 162.0069 167.15756 171.58097 179.32192 184.72165 189.14505 193.93706 199.08773 203.51113 480.32197 489.03926 493.5523 501.4726 506.4539 511.43519 516.4165 524.7154 531.3505 536.05288 541.2035 549.68167 554.66299 559.6443 564.6256">DecisionScientist,ApprentinceLeaderMay2015-Jun2019</tspan></text>
<text xml:space="preserve" transform="matrix(1 0 -0 1 0 792)" font-size="10.9091" font-family="CMSY10" font-style="italic"><tspan y="-401.28099" x="59.999998">&#x25e6;</tspan></text>
<text xml:space="preserve" transform="matrix(1 0 -0 1 0 792)" font-size="9.9626" font-family="CMSSBX10" font-weight="bold"><tspan y="-401.28099" x="70.909 76.99615 81.021038 86.251399 91.840419 94.39084 96.94126 99.491687 104.23388 106.7843 112.37332 121.509029 127.28733 132.37822 137.85765 143.09798 147.95973 156.5973 162.9933 170.29589 179.74044 185.51874 189.22483 194.45519 203.09276 208.18366 215.29695 220.46755 224.17363">StabilizingLegacyETLFramework</tspan></text>
<text xml:space="preserve" transform="matrix(1 0 -0 1 0 792)" font-size="9.9626" font-family="CMSS10"><tspan y="-401.28099" x="229.454 236.647 243.29206 248.44272 250.82378 253.20484 260.12886 264.55226 269.53355 274.6842 277.3542 280.02418 285.00547 290.15614 293.56333 298.35536 301.95185 304.33293 309.3142 317.7824 322.93309 327.7251 331.54078 335.96418 344.43238 347.48094 350.88813 355.68016 363.59046 368.01387 374.53935 379.25166 382.65885 390.84809 393.89665 398.59898 405.3237 408.0933 413.24397 416.2925 421.00483 424.41203 432.32234 437.11436 440.71086 443.09193 447.51533 455.62489 462.26994 469.46293 481.49775 485.09425 493.40306 496.81025 501.9609 510.4291 512.8102 517.2336 522.2149 527.0069 531.4303 539.34066 545.2883 552.0729">:BuiltconfigurationbasedframeworkforInformaticaBDMtorunlegacyETL</tspan><tspan y="-389.326" x="70.909 74.50549 79.2975 83.113178 87.984889 91.80056 98.99355 104.94122 110.09189 114.883899 120.03456 122.41562 126.83901 135.31719 140.29848 145.27977 150.26107 161.32952 166.48018 171.27219 174.86869 182.97824 187.95954 193.38915 197.81255 201.21976 206.01177 209.60826 211.98932 216.97061 222.12128 229.2545 232.30306 235.71027 240.69156 251.92938 256.91069 265.2095 269.80229 274.31535 277.72254 280.1036 284.527 292.9952 298.14588 302.9379 306.5344 314.65394 318.4696 323.4509 328.60157 332.00877 336.43217 340.85557 347.98878 351.58528 359.89408 364.31748 369.46815 374.2502 379.40089 381.78196 389.53288 396.17793 402.26506 407.05708 412.20774 420.67594 425.46797 430.61863 435.41065 437.79173 442.3845 445.981 448.36207 452.78547 459.92866 465.0793 468.895 476.63594 481.05934 485.85136 489.66703 494.09043">tasks.Enabled140+dataoperationsfrom15varieddatasourcestoenableBIandanalyticsusecases</tspan></text>
<text xml:space="preserve" transform="matrix(1 0 -0 1 0 792)" font-size="9.9626" font-family="CMSY10" font-style="italic"><tspan y="-375.378" x="60.472997">&#x25e6;</tspan></text>
<text xml:space="preserve" transform="matrix(1 0 -0 1 0 792)" font-size="9.9626" font-family="CMSSBX10" font-weight="bold"><tspan y="-375.378" x="70.909 74.20662 79.79564 83.143077 86.84916 92.07952 96.28374 100.308628 104.01471 109.60373 114.47544 118.50033 124.08935 127.79543 136.5426 141.77297 147.36199 156.59732 162.18634 167.4167 172.28842 177.2797 182.37058 187.9596 197.2049 200.55233 205.72292 213.08528 219.48128 228.11885 233.70787 236.2583 241.4289 246.10135 251.19223 259.9394 267.24198 272.831 278.42 280.97044 283.52085 288.39256 293.62294 297.64784 300.19825 305.67768">InfrastructureandbackendforEmployeeApplication</tspan></text>
<text xml:space="preserve" transform="matrix(1 0 -0 1 0 792)" font-size="9.9626" font-family="CMSS10"><tspan y="-375.378" x="311.267 318.46 325.65299 330.08634 333.902 336.28309 341.26438 346.4051 350.83845 359.30665 364.09867 369.24934 377.71754 382.8682 388.01887 390.39994 392.781 401.2492 407.68507 413.63273 419.17195 429.284 435.92906 442.29515 448.38227 453.53294 458.32496 462.74836 467.3411 471.7645 476.91517 485.38337 489.25883 494.05085 499.2015 507.6797 513.209 522.6137">:DesignedandbuildRESTAPIbackend(andAWS</tspan><tspan y="-363.423" x="70.909 73.290058 78.44072 81.48927 84.896488 89.68849 93.504169 97.10066 100.50787 105.65854 110.08193 113.67843 118.829097 122.236309 126.6597 133.8527 140.65717 143.03823 146.63472 155.1129 158.92858 164.07924 169.2299 172.54746 176.36313 180.78653 185.20993 190.19123 195.34189 203.8101 207.21732 211.64072 215.45639 220.886 225.8673 231.01796 234.83364 242.57459 246.17108 248.55214 256.46244 264.21336 267.2619 271.96424 278.68898 283.11238 291.02268 296.17335 298.5544 303.25675 307.58055 312.00395 319.74488 324.5369 329.68757 334.83824 337.2193 339.60038 344.02378 348.8158 352.4123 354.79338 359.77467 368.24287 373.6725 378.37483 384.9003 389.3237 392.7309 395.11198 400.26264 408.57145 413.55274 418.53404 428.7656 433.91627 437.73194 442.15534 445.56254">infrastructure)withsub-secondresponsetimeforemployeeapplicationpowering45Kusers</tspan></text>
<text xml:space="preserve" transform="matrix(1 0 -0 1 0 792)" font-size="9.9626" font-family="CMSY10" font-style="italic"><tspan y="-349.475" x="60.472997">&#x25e6;</tspan></text>
<text xml:space="preserve" transform="matrix(1 0 -0 1 0 792)" font-size="9.9626" font-family="CMSSBX10" font-weight="bold"><tspan y="-349.475" x="70.909 74.20662 79.79564 83.143077 86.84916 92.07952 96.28374 100.308628 104.01471 109.60373 114.47544 118.50033 124.08935 127.79543 136.5426 139.89003 145.06063 152.42299 159.4267 164.51758 168.54247 173.77283 176.32326 182.52 189.52371 193.2298 195.78023 200.65195 203.20238 208.7914 217.92711 223.15747 228.74649 237.99179 241.28942 246.87844 251.85973 256.95063 262.53965 266.56455 271.73515 275.44123 284.0788 291.38139 296.9704 302.55943 305.10984 307.66026 312.53196 317.76234 321.78724 324.33766 329.81709">InfrastructureforRetailPricingandInventoryApplication</tspan></text>
<text xml:space="preserve" transform="matrix(1 0 -0 1 0 792)" font-size="9.9626" font-family="CMSS10"><tspan y="-349.475" x="335.399 342.59199 345.36158 350.51225 353.5608 356.968 361.76 365.57569 369.17219 372.57939 377.73005 382.15345 385.74995 390.9006 394.3078 402.05873 405.8744 410.2978 413.8943 419.04496 427.51316 432.30519 437.45585 445.92405 453.25654 458.4072 461.72474 466.59645 470.00364 474.42704 482.33735 484.7184 488.54405 496.28498 500.70838 505.68968 510.84034 514.4368 516.8179 521.9685 527.11917 532.10049 537.2511">:InfrastructuresetupandOn-premisecontinuous</tspan><tspan y="-337.52003" x="70.909 73.290058 78.44072 82.03722 86.46061 91.44191 94.84912 99.64113 103.237628 105.61868 110.59998 119.06819 123.8602 129.01087 137.47908 142.62975 147.05315 152.20381 154.58487 159.29717 163.88993 171.80023 176.22364 181.3743 188.28835 193.08036 198.23102 203.10274 206.50995 211.49124 216.28325 220.70665 229.18483 232.22342 236.93572 243.66048 248.45249 256.9207 261.7127 266.86338 272.01405 274.3951 276.77619 281.1996 285.9916 289.5881 291.96919 296.95048 305.41868 307.79975 312.9504 317.54319 322.52449 324.90556 329.49833 331.8794 337.03007 345.33888 350.21058 353.61778 355.99885 360.42225 362.8033 367.95399 376.2528 381.04484 386.1955 394.6637 398.0709 402.8629 408.01359 412.99488 420.7458 424.56147 426.94255 434.85285 440.0035 442.38459 447.1766 450.7731 453.15419 458.13548 463.28614">integrationanddeploymentapproachforanapplicationinvolvingpricingandrangesimulations</tspan></text>
<text xml:space="preserve" transform="matrix(1 0 -0 1 0 792)" font-size="9.9626" font-family="CMSY10" font-style="italic"><tspan y="-323.57304" x="60.472997">&#x25e6;</tspan></text>
<text xml:space="preserve" transform="matrix(1 0 -0 1 0 792)" font-size="9.9626" font-family="CMSSBX10" font-weight="bold"><tspan y="-323.57304" x="70.909 78.8193 84.40832 88.433208 90.98363 99.6212 102.17162 106.91382 115.66098 122.654727 127.75558 132.61733 138.10672 146.73433 155.3719 160.4628 166.05182 171.64084 176.74169 184.09409 187.44152 192.62207 199.97447 207.27706 209.82749 213.53357 216.084 218.63443 224.22345 232.97061 240.58203 246.17105 250.37528 255.46616 258.01658 260.567 263.1174 268.70643">OptimizeRecommenderforAirlineUpselling</tspan></text>
<text xml:space="preserve" transform="matrix(1 0 -0 1 0 792)" font-size="9.9626" font-family="CMSS10"><tspan y="-323.57304" x="274.322 281.51499 286.49629 291.47758 303.10395 305.48503 307.8661 310.91465 317.82868 320.20976 328.67796 333.00175 337.42515 341.9382 345.3454 347.72648 355.63679 359.04399 363.46739 368.06016 372.48356 377.63423 382.78489 390.5358 395.4075 403.3178 406.725 411.1484 415.74119 420.16459 423.57179 427.38746 435.13838 439.56178 444.71244 449.69374 452.0748 457.22547 461.64888 466.07228 469.47947 471.86054 477.0112 485.31004 490.73966 495.16307 498.57026 501.6188 506.32115 509.72834 517.6386 522.4306 527.58126 532.00466 539.7456 544.7269">:30%liftinyearlyrevenuebyreverseengineeringperformanceof</tspan><tspan y="-311.61705" x="70.909 74.31621 78.7396 83.53161 85.91267 89.23021 92.826709 95.20776 103.118068 110.859 114.26621 118.689609 123.113 128.0943 136.01457 143.92488 148.34828 153.49895 158.64962 163.44162 167.03812 169.41918 174.40047 179.54117 186.68436 190.55982 195.71048 200.50249 204.31816 208.74156 217.20978 222.19107 230.65929 237.99176 241.39897 246.19098 250.61438 252.99544 260.74635 267.1822 273.96675 281.15974 288.35273 293.5034 297.31907 301.74247 310.22065 313.25926 317.97157 324.6963 329.4883 331.8694 335.27659 337.65766 340.03874 345.1894 349.6128 356.746 361.1694 366.32008 370.74348 375.16688 380.03858 383.3561 385.73719 394.21537 399.08708 402.49427 407.75453 412.17793 416.60133 420.417">real-timerecommendations(basedonOracleRTD)usedforairlinescheck-inprocess</tspan></text>
<text xml:space="preserve" transform="matrix(1 0 -0 1 0 792)" font-size="10.9091" font-family="CMSY10" font-style="italic"><tspan y="-292.58906" x="35.999998">&#x2022;</tspan></text>
<text xml:space="preserve" transform="matrix(1 0 -0 1 0 792)" font-size="10.9091" font-family="CMSSBX10" font-weight="bold"><tspan y="-292.58906" x="46.908998 54.905366 61.02537 65.43265 71.432659 77.55266 80.34539 86.46539 89.585399">Autoninja</tspan></text>
<text xml:space="preserve" transform="matrix(1 0 -0 1 0 792)" font-size="10.9091" font-family="CMSS10"><tspan y="-292.58906" x="496.70899 503.98536 509.23265 514.8726 520.32717 525.5744 528.1817 533.33078 537.06167 541.9053 548.57077 551.60348 557.24349 562.8835 565.4908">Bangalore,India</tspan></text>
<text xml:space="preserve" transform="matrix(1 0 -0 1 0 792)" font-size="9.9626" font-family="CMSSI10" font-style="italic"><tspan y="-279.04005" x="46.908998 52.86663 57.290025 61.713418 66.86408 74.196559 79.34722 86.48044 92.42811 97.57877 102.560077 104.94113 110.0918 114.51519 118.93858 125.66334 129.53879 132.3084 137.45906 141.05556 145.47896 148.88617 154.03684 483.51 488.21238 493.0044 501.4726 506.4539 511.43519 516.4165 524.72537 531.3605 536.0628 541.21347 549.68167 554.66299 559.6443 564.6256">TechOpsEngineer(Intern)Jan2015-Jun2015</tspan></text>
<text xml:space="preserve" transform="matrix(1 0 -0 1 0 792)" font-size="10.9091" font-family="CMSY10" font-style="italic"><tspan y="-263.07505" x="59.999998">&#x25e6;</tspan></text>
<text xml:space="preserve" transform="matrix(1 0 -0 1 0 792)" font-size="9.9626" font-family="CMSSBX10" font-weight="bold"><tspan y="-263.07505" x="70.909 77.29503 82.38592 87.25763 92.84665 100.75695 106.34597 114.20646 117.50408 123.0931 127.11799 132.20888 135.91497">TechOpsIntern</tspan></text>
<text xml:space="preserve" transform="matrix(1 0 -0 1 0 792)" font-size="9.9626" font-family="CMSS10"><tspan y="-263.07505" x="141.514 148.70702 154.6547 159.1777 162.58492 164.96598 172.87628 176.69196 180.28845 185.08046 190.06175 197.8027 201.61838 205.21488 209.73789 213.1451 216.7416 221.89226 227.03296 234.23593 240.88098 244.2882 246.66925 251.81992 256.8012 264.54216 269.97178 274.39518 277.7127 284.2382 288.67155 293.09495 301.56315 305.15965 309.58305 314.00645 319.1571 324.30778 326.68885 331.11225 335.90428 341.60289 346.3949 351.54557 360.01377 364.99507 370.42469 374.84809 378.25529 383.0473 386.6438 389.02488 394.00617 399.15684 403.94886 409.64747 413.24397 417.66737 422.45939 433.6972 437.2937 445.59254 450.46424 453.87144 456.2525 460.9648 464.372 466.74314 470.34959 472.7207 477.0644 484.80534 488.21253 492.63594 497.7866 502.93727 505.31834 508.72554 513.1489 521.0592 525.4826 530.63327 534.22976 538.0454">:Earlystagestartup.Bridgebetweentechnicalandoperationalteamtoprioritizerequirements.</tspan><tspan y="-251.12004" x="70.909008 73.678607 78.82927 83.42203 88.40333 90.784389 95.377147 99.80054 108.268749 110.6498 119.127979 125.49408 128.90129 133.32469 136.64225 140.45792 145.24993 147.63098 152.05438 159.1876 163.97962 169.13028 177.5985 181.19499 185.6184 190.0418 195.19246 200.34313 202.72418 207.14759 211.93959 217.64817 222.51988 225.9271 231.18733 236.338 241.48867 245.91207 252.82611 257.8074 261.2146 266.47486 271.45616 279.36647 281.74754 286.8982">InvolvedinPre-salesandtechnicalproductgrooming</tspan></text>
<text xml:space="preserve" transform="matrix(1 0 -0 1 0 792)" font-size="11.9552" font-family="CMCSC10"><tspan y="-227.20804" x="36.000005 44.87076 52.330808 59.659345 66.72487 73.25241 80.31793 83.928409 91.53191">Education</tspan></text>
<path transform="matrix(1,0,0,-1,36,569.175)" stroke-width=".398" stroke-linecap="butt" stroke-miterlimit="10" stroke-linejoin="miter" fill="none" stroke="#000000" d="M 0 0 L 540 0 "/>
<text xml:space="preserve" transform="matrix(1 0 -0 1 0 792)" font-size="10.9091" font-family="CMSY10" font-style="italic"><tspan y="-208.316" x="36">&#x2022;</tspan></text>
<text xml:space="preserve" transform="matrix(1 0 -0 1 0 792)" font-size="10.9091" font-family="CMSSBX10" font-weight="bold"><tspan y="-208.316" x="46.909 54.5781 61.58174 72.25084 75.861759 81.98176 86.585399 90.992679 93.78541 98.18178 104.30178 108.70906 118.28725 124.287258 131.95636 138.9491 144.52365 149.8582 155.97821 162.09822 168.09822 170.89095 176.89095 182.89095">PESInstituteofTechnology</tspan></text>
<text xml:space="preserve" transform="matrix(1 0 -0 1 0 792)" font-size="10.9091" font-family="CMSS10"><tspan y="-208.316" x="496.71 503.98637 509.23365 514.87368 520.3282 525.57546 528.18276 533.3318 537.0627 541.9063 548.5718 551.6045 557.2445 562.8845 565.4918">Bangalore,India</tspan></text>
<text xml:space="preserve" transform="matrix(1 0 -0 1 0 792)" font-size="9.9626" font-family="CMSSI10" font-style="italic"><tspan y="-194.767" x="46.908998 53.55405 58.34606 62.769456 67.92012 72.34351 74.72457 79.42692 86.16164 91.14294 97.50903 103.4567 108.60737 113.58867 115.96973 121.12039 125.543788 129.96718 133.37439 135.75545 140.90612 149.20496 155.15264 157.53369 161.95709 166.3805 169.97699 173.3842 175.76526 180.18866 184.98067 190.68924 195.47129 200.62195 209.10013 215.0478 217.42887 221.85227 226.27567 229.87216 233.27938 238.26067 243.41133 245.79239 250.21579 254.03147 260.1186 266.76365 272.30284 278.94789 285.035 290.0163 292.7859 297.76719 306.066 309.94148 314.92277 321.29884 326.28013 331.2614 479.85359 484.55595 489.7066 495.4052 500.3865 505.3678 510.3491 518.64797 526.9568 531.6591 536.80978 541.9604 549.70138 554.6827 559.664 564.6453">BachelorofEngineeringElectricalandElectronics;GPA:8.56(of10)Jul2011&#x2013;June2015</tspan></text>
<text xml:space="preserve" transform="matrix(1 0 -0 1 0 792)" font-size="11.9552" font-family="CMCSC10"><tspan y="-172.469" x="35.999998 43.304624 50.90813 54.5186 60.65162 66.78464">Skills</tspan></text>
<path transform="matrix(1,0,0,-1,36,623.914)" stroke-width=".398" stroke-linecap="butt" stroke-miterlimit="10" stroke-linejoin="miter" fill="none" stroke="#000000" d="M 0 0 L 540 0 "/>
<text xml:space="preserve" transform="matrix(1 0 -0 1 0 792)" font-size="10.9091" font-family="CMSY10" font-style="italic"><tspan y="-155.146" x="36">&#x2022;</tspan></text>
<text xml:space="preserve" transform="matrix(1 0 -0 1 0 792)" font-size="9.9626" font-family="CMSSBX10" font-weight="bold"><tspan y="-155.146" x="46.909 54.819307 60.298738 68.93631 74.16667 76.717098 82.306118">Domains</tspan></text>
<text xml:space="preserve" transform="matrix(1 0 -0 1 0 792)" font-size="9.9626" font-family="CMSS10"><tspan y="-155.146" x="86.505008 93.698 100.891 105.68301 109.2795 117.39902 123.34669 128.49735 133.47864 135.8597 141.01036 145.43376 149.85717 153.26438 155.64543 160.7961 165.77739 171.86455 178.5096 180.89066 189.1895 196.38249 201.1745 204.771 212.89052 219.53557 224.68624 229.47824 231.8593 236.45206 240.04856 242.42961 246.85301 250.66869 256.75584 263.40089 268.38218 270.76325 273.14433 280.88526 287.25135 290.65855 295.63984 298.29985 302.72325 307.14665 314.07066 322.78794 327.57997 332.73063 337.52265 342.50395 346.92735 354.83766 359.26106 364.4117 368.0082 374.09535 382.81263 387.60466 391.42033 395.0168 399.44023 406.16496 413.35795 418.14997 421.74647 429.866 438.58329 443.3753 448.52598 453.30805 458.28935 462.7227 470.633 475.0564 480.20707 483.80357 489.8907 497.08369 501.8757 505.4722 513.5818 520.22689 525.2082 529.80099 534.22439 537.6316 542.7822 547.5742 552.72488 557.14828 561.57168">:DataEngineering,BigDataAnalytics,AgileProjectManagement,MasterDataManagement,DataGovernance,</tspan><tspan y="-143.191" x="46.909006 55.62628 60.418294 64.84169 69.992359 72.37341 77.52408 85.265018 90.66474 95.088138 99.61115 103.0084 108.159069 110.54012 115.69079 120.67209 126.769199 132.3084 137.28969 140.33824 143.65579 150.1813 154.69437 158.10158 165.8525 173.04549 177.46889 182.06165 186.48505 188.8661 193.8474 198.99806 206.90837 211.33177 216.48244 223.39649 228.79622 231.17728 234.22583 238.64923 243.07263 247.66539 252.08879 254.46985 258.89326 264.99037 272.18336 276.60676 281.19953 288.532 293.68269">MachineLearning,SoftwareDevelopmentLifecycle,DevOps</tspan></text>
<text xml:space="preserve" transform="matrix(1 0 -0 1 0 792)" font-size="9.9626" font-family="CMSY10" font-style="italic"><tspan y="-128.247" x="36.473005">&#x2022;</tspan></text>
<text xml:space="preserve" transform="matrix(1 0 -0 1 0 792)" font-size="9.9626" font-family="CMSSBX10" font-weight="bold"><tspan y="-128.247" x="46.909006 52.697275 57.92764 63.51666 68.996089 74.585109 79.81547 85.2949 90.38579">Languages</tspan></text>
<text xml:space="preserve" transform="matrix(1 0 -0 1 0 792)" font-size="9.9626" font-family="CMSS10"><tspan y="-128.247" x="94.586 101.77899 107.3182 112.468868 116.89226 119.273319 124.98188 128.85733 134.008 138.8 142.61568 147.76634 151.6418 157.72896 164.09506 168.68782 172.28432 177.43498 182.41628 187.56694 193.6541 199.1933 206.52577 211.9255 218.01267 224.65772 229.639 232.02007 236.81208 241.96274 250.27155 254.147 256.52809 260.95149 265.46455 268.87174 274.0224 276.40348 281.55415 286.53544 290.4109 296.49803 302.03724 306.46064 311.25267 313.63374 318.42576 324.51289 329.9126 334.70463 340.66227 345.08567">:Shell(bash),Python,SQL,Golang(learning),Scala,LaTeX</tspan></text>
<text xml:space="preserve" transform="matrix(1 0 -0 1 0 792)" font-size="9.9626" font-family="CMSY10" font-style="italic"><tspan y="-113.30299" x="36.473">&#x2022;</tspan></text>
<text xml:space="preserve" transform="matrix(1 0 -0 1 0 792)" font-size="9.9626" font-family="CMSSBX10" font-weight="bold"><tspan y="-113.30299" x="46.909 54.819307 60.04967 64.07456">Data</tspan></text>
<text xml:space="preserve" transform="matrix(1 0 -0 1 0 792)" font-size="9.9626" font-family="CMSS10"><tspan y="-113.30299" x="69.311008 76.47411 82.561267 87.542568 91.35824 94.954738 99.936038 103.34325 107.76664 111.58231 117.619647 123.15885 130.49134 135.89107 138.27213 141.86862 146.29203 152.32936 158.69547 163.11887 166.52608 170.12258 172.50363 176.92704 181.71904 187.75638 194.12248 197.71898 202.86965 207.29305 212.44371 217.23572 223.27306 231.99033 240.77733 246.31653 253.649 259.04875 265.06614 267.83573 272.9864 276.03495 280.73728 284.14448 292.05479 296.8468 300.4433 302.82438 307.24778 315.29759 321.94264 324.3237 332.5528 339.7458 344.5378 348.1343 356.17414 364.89143 369.68345 374.8341 379.62614 384.60743 389.03083 396.94114 401.36454 406.5152 410.1117 416.14903 423.20256 427.99458 433.14524 438.4055 443.38679 451.78526 458.83879 466.03178 471.7005 477.23973 483.2671 489.70295 494.12635 499.277 501.65809 505.47377 511.51109 517.45877 519.8398 524.6218 528.44747 532.04397 534.425 538.8484 544.3876 548.811 553.32406 556.73129 561.15469">:Postgres,SQLite,Vertica,Athena,MSSQL,InformaticaBigDataManagement,HadoopHDFS,Redis,ElasticSearch</tspan></text>
<text xml:space="preserve" transform="matrix(1 0 -0 1 0 792)" font-size="9.9626" font-family="CMSY10" font-style="italic"><tspan y="-98.35899" x="36.473005">&#x2022;</tspan></text>
<text xml:space="preserve" transform="matrix(1 0 -0 1 0 792)" font-size="9.9626" font-family="CMSSBX10" font-weight="bold"><tspan y="-98.35899" x="46.909006 50.206628 55.795648 59.14308 62.849168 68.07953 72.283748 76.30863 80.01472 85.60374 90.47545 94.500339 100.089359 103.79544">Infrastructure</tspan></text>
<text xml:space="preserve" transform="matrix(1 0 -0 1 0 792)" font-size="9.9626" font-family="CMSS10"><tspan y="-98.35899" x="108.894008 116.087 121.486728 123.86778 129.01845 134.16912 142.08939 148.72449 155.57875 160.72942 165.88008 171.03075 174.62725 179.77791 185.86507 192.23117 196.65457 201.80524 205.40174 210.38303 214.1987 220.29582 226.73166 233.78519 239.73287 245.1326 251.21976 257.58586 259.96693 264.9482 270.09889 278.56709 285.21214 290.74137 300.14607 305.68528 311.78239 318.42744 324.79353">:Linux-Ubuntu,Centos,RHEL,Cloud-AWS,GCP</tspan></text>
<text xml:space="preserve" transform="matrix(1 0 -0 1 0 792)" font-size="9.9626" font-family="CMSY10" font-style="italic"><tspan y="-83.41499" x="36.473009">&#x2022;</tspan></text>
<text xml:space="preserve" transform="matrix(1 0 -0 1 0 792)" font-size="9.9626" font-family="CMSSBX10" font-weight="bold"><tspan y="-83.41499" x="46.909009 53.295038 59.08331 64.56274 67.11316 74.97365 80.20401 85.79303 95.02836 100.81663 104.52271 109.753078 118.39065 123.48154 130.58487 135.76543 139.47151">ToolsandFramework</tspan></text>
<text xml:space="preserve" transform="matrix(1 0 -0 1 0 792)" font-size="9.9626" font-family="CMSS10"><tspan y="-83.41499" x="144.759 151.95201 158.59706 160.97812 164.57462 170.67174 177.31679 179.69785 183.10506 185.77504 188.445 193.14736 199.95182 206.03897 211.57817 216.72884 221.2419 224.64911 229.52082 235.61794 242.81093 248.06122 252.48462 257.08735 261.51075 264.91795 271.00508 278.0586 283.0399 285.42097 290.57164 295.1644 301.25154 305.9539 310.3773 315.52796 320.39967 322.78074 327.9314 331.74708 337.84419 343.79188 348.21528 351.62248 355.02967 359.8217 362.87025 367.57258 370.97978">:Git,Airflow,Spark,Docker,Nginx,Jenkins,Terraform</tspan></text>
</g>
</svg>
